<?xml version="1.0" encoding="utf-8"?>
<!-- Generator: Adobe Illustrator 26.3.1, SVG Export Plug-In . SVG Version: 6.00 Build 0)  -->
<svg version="1.1" id="Layer_2" xmlns="http://www.w3.org/2000/svg" xmlns:xlink="http://www.w3.org/1999/xlink" x="0px" y="0px"
	 viewBox="0 0 1024 1024" style="enable-background:new 0 0 1024 1024;" xml:space="preserve">
<style type="text/css">
	.st0{fill:#0F0F30;}
	.st1{fill:#FFFFFF;}
</style>
<path class="st0" d="M883.8,1023H140.2C63.3,1023,1,960.7,1,883.8V140.2C1,63.3,63.3,1,140.2,1h743.5C960.7,1,1023,63.3,1023,140.2
	v743.5C1023,960.7,960.7,1023,883.8,1023z"/>
<g id="icon">
	<path class="st1" d="M515,782c-148.9,0-270-121.1-270-270s121.1-270,270-270c96.1,0,185.7,51.7,233.8,135c2.8,4.9,5.5,9.9,8.1,15
		c2.4,4.9,4.8,10,6.9,15c10.6,25.1-1.1,53.9-26.2,64.5c-25,10.6-53.9-1.1-64.5-26.2c-1.4-3.2-2.8-6.4-4.4-9.5
		c-1.6-3.2-3.3-6.4-5.1-9.5c-30.6-52.9-87.5-85.8-148.6-85.8c-94.6,0-171.5,76.9-171.5,171.5S420.4,683.5,515,683.5
		c61,0,118-32.9,148.6-85.8c1.8-3.1,3.5-6.3,5.1-9.5c1.5-3.1,3-6.3,4.4-9.5c10.6-25.1,39.5-36.8,64.5-26.2
		c25.1,10.6,36.8,39.5,26.2,64.5c-2.1,5.1-4.5,10.1-6.9,15c-2.5,5.1-5.2,10.1-8.1,15C700.7,730.3,611,782,515,782z"/>
</g>
</svg>
